<svg xmlns="http://www.w3.org/2000/svg" viewBox="0 0 3800 3000"><path fill="#e7f0fe" d="M2605.18 352.89c-341.33 67.82-599.86 333.03-929.52 439.96-504.53 159.42-1232.75 295.91-1329.75 854.26-201.61 1160.53 1613.17 1344.15 2249.32 860.36 816.44-620.9 220.4-1289.93 771.85-1789.91 409.03-370.87-521.45-432.97-761.9-364.67z"/><path fill="#a0c5ff" d="M1746.47 823.17c129.92-95.25 166.82-253.34 233.73-144.3 66.97 109.03-70.02 336.37 63.66 364.85 133.73 28.39 96.1-228.21 193.42-177.52 97.37 50.59-35.48 274.19 11.54 405.8.71 1.99 1.57 3.57 2.36 5.36-53.92 31.38-109.09 60.64-163.95 90.41-32.98-17-58.61-36.74-66.18-69.98-28.32-123.96-30.4-199.23-296.36-337.58-178.95-93.08-216.65-255.7-222.24-352.22 95.43-72.65 124.36 302.94 244.02 215.18z"/><path fill="#5d74e4" d="M1502.44 607.99c5.59 96.52 43.3 259.14 222.24 352.22 265.96 138.35 268.04 213.61 296.36 337.58 7.57 33.25 33.2 52.98 66.18 69.98-34.19 18.56-68.22 37.38-101.67 57.16-39.69-65.49-265.26-64.63-328.08-153.44-78.35-110.84 84.16-197.35 26.81-241.64-57.34-44.28-325.23-222.72-207.99-392.63 9.24-13.39 17.93-22.98 26.15-29.23z"/><path fill="#a0c5ff" d="M665.17 2367.34c33.65-144.55-35.43-277.2 76.78-241.13 112.25 36.02 152.93 277.14 263.46 216.83 110.51-60.41-69.78-217.19 28.66-240.17 98.42-23.07 139.75 212.95 251.6 276.73 1.69.97 3.24 1.55 4.87 2.33-18.86 54.29-39.86 107.85-60.34 161.59-33.26 7.91-63.02 9.49-88.26-9.2-94.19-69.65-140.82-121.02-409.75-58.11-180.95 42.33-304.9-48.71-366.73-112.82 23.11-108.06 268.73 137.11 299.71 3.95z"/><path fill="#5d74e4" d="M365.46 2363.39c61.84 64.11 185.79 155.15 366.73 112.82 268.93-62.91 315.56-11.55 409.75 58.11 25.25 18.69 55.01 17.11 88.26 9.2-12.76 33.49-25.25 67.07-36.76 100.98-67.05-21.96-224.2 114.02-321.41 89.64-121.28-30.45-59.62-188.45-126.27-184.99-66.66 3.46-361 39.5-381.02-149.62-1.6-14.92-1.28-26.84.72-36.14z"/><path fill="#a0c5ff" d="M2608.7 1625.69c73.27 269.24 23.1 318.18-43.81 415.81-65.48 95.41 142.83 241.36-55.54 414.69l-8.83 30.3s401.4 119.39 454.62-60.91c53.27-180.27-289.21-129.37-228.81-244.58 60.33-115.24 297.14-165.53 270.27-264.06-26.77-98.56-178.52 89.16-243.52-20.23-64.91-109.41 177.07-159.23 209.36-273.86 32.35-114.6-99.08-40.04-246.24-68.77-135.56-26.45 103.07-283.33-6.88-302.75-62.5 64.76-149.91 193.21-100.62 374.36z"/><path fill="#5d74e4" d="M2353.36 1776.23c-26.32 123.65 203.42 332.74 52.37 354.45-151.11 21.68-125.24 194.56-125.24 194.56l228.87 130.95c198.37-173.34-9.94-319.28 55.54-414.69 66.91-97.63 117.08-146.56 43.81-415.81-49.3-181.15 38.12-309.6 100.61-374.36-9.46-1.68-21.51-1.57-36.51.58-190.22 27.07-143.15 322.94-137.25 390.12 5.91 67.18-155.85 10.65-182.2 134.2zM788.28 2486.28c-.72-.17-37.94-9.1-80.66-33.26-.1-.22-.1-.46-.24-.65-5.34-7.25-4.67-24.16-3.68-36.34 11.01-11.73 42.23-47.99 37.8-77.66-5.37-35.91-70.29-24.84-68.2 7.45 1.95 30.22 9.86 47.25 23.69 69.48-.83 10.01-1.36 22.52 1.1 32.13-36.92-22.52-76.17-56.42-98.65-105.79-6-13.19-12.75-24.76-19.93-35.04 6.19-14.35 23.63-59.76 9.19-86.37-17.31-31.91-74.54.67-61.55 30.3 1.3 2.96 2.62 5.65 3.95 8.3-24.51-16.31-48.76-23.59-66.22-26.8-6.45-5.4-45.75-36.99-74.66-30.21-31.57 7.41-16.98 64.4 11.62 60.18 25.41-3.75 39.85-11.43 57.31-24.11 19.49 3.02 50.61 11.58 80.4 35.54 8.53 12.74 18.3 22.1 30.88 32.15 8.3 11.1 16.06 23.91 22.86 38.85 7.45 16.36 16.71 31 27.07 44.19-16.08-4.06-39.71-4.04-52.73-3.62-14.23-8.82-55.14-31.66-82.98-21.7-34.18 12.22-10.75 73.77 20.53 65.46 29.42-7.81 44.65-19.03 63.92-37.06 23.02-.62 53.65 1 60.6 8.31.1.11.24.15.35.24 62.68 70.16 155.59 92.34 156.73 92.6 1.53.36 3.07-.4 3.76-1.75a3.384 3.384 0 0 0-2.26-4.82z"/><path fill="#5d74e4" d="M2713.91 2231.4c-1.2 25.2-32.51 50.05-44.09 58.41-3.9 10.4-11.57 29.05-20 40.42 13.77-3.88 28.34-6.43 43.66-6.99 13.99-.51 26.62-2.46 38.08-5.4 12.02-6.65 22.58-11.32 35.4-13.91 28.59-15.72 45.45-37.48 54.17-51.87-4.33-17.9-5.69-31.79-.39-53.05 5.96-23.93 55.67-16.93 51.25 10.39-4.05 25.01-41.74 45.74-48.1 49.07-8.21 12.73-21.83 29.49-42.66 43.52 2.52-.19 5.07-.36 7.83-.42 27.6-.62 34.7 55.12 3.9 58.4-25.69 2.74-55.84-25.77-65.15-35.32-10.44 2.33-21.76 3.89-34.12 4.34-46.25 1.69-85.76 21.63-115.52 43.44 8.37 1.18 18.08 5.67 25.7 9.57 22.03-3.68 38.03-4.38 62.51 3.9 26.15 8.85 13.78 63.66-16.28 56.22-24.84-6.14-43.3-42.56-48.98-55.05-9.29-4.74-22.41-10.76-29.86-8.9-.2.05-.39-.03-.6-.02-32.94 25.85-52.09 52.31-52.45 52.82a2.87 2.87 0 0 1-4.01.68c-.2-.14-.38-.3-.52-.48-.84-.98-.94-2.44-.16-3.53.58-.82 48.27-66.9 123.99-93.54.11-.06.19-.15.3-.2 8.02-3.1 19.26-26.74 26.25-45.1-7.96-21.06-11.86-36.72-8.46-62.47 3.61-27.39 59.78-25.87 58.31 5.07z"/><path fill="#fff" d="M2721.6 1899.69c3.97 23.38-19.79 52.5-28.74 62.5-1.49 10.34-4.78 29-10.24 41.13 11.86-6.33 24.73-11.6 38.68-15.19 7.73-1.99 14.84-4.41 21.49-7.09-9.99-15.89-15.94-29.24-17.84-51.72-2.18-25.86 49.69-35.76 54.56-7.06 2.6 15.32-6.69 33.06-15.92 46.3 6.66-5.17 13.35-9.45 21.29-12.94 23.09-20.18 34.2-43.55 39.31-58.52-7.58-15.56-11.62-28.04-11.03-48.63.67-23.17 47.71-26.73 49.14-.76 1.31 23.77-29.13 50.39-34.3 54.73-4.98 13.34-14.11 31.47-30.42 48.54 2.28-.68 4.58-1.35 7.11-1.96 25.22-6.12 42.95 43.63 15.33 52.84-23.03 7.68-56.45-12.44-66.92-19.33-9.11 4.24-19.2 7.94-30.45 10.84-2.94.76-5.83 1.61-8.67 2.51 8.51-1.32 17.64-1.5 28.81-.26 25.79 2.87 25.46 55.68-3.65 54.9-23.4-.63-46.97-28.75-55.34-39.78 0 0-17.33 2.21-58.49 45.74 7.93-.6 17.74 1.57 25.52 3.62 19.49-7.81 34.04-11.67 58.18-8.99 25.8 2.87 25.46 55.68-3.65 54.9-24.05-.65-48.31-30.37-56.04-40.7-9.49-2.49-22.74-5.37-29.21-2.17-.18.09-.37.05-.55.1-25.05 30.36-37.31 58.5-37.54 59.04a2.703 2.703 0 0 1-3.55 1.43c-.21-.09-.41-.2-.58-.33a2.7 2.7 0 0 1-.85-3.21c.37-.87 30.87-71.13 95.04-110.82.09-.08.14-.18.24-.24 6.74-4.46 12.3-28.43 15.03-46.69-11.55-17.74-18.27-31.33-20.33-55.66-2.17-25.88 49.71-35.78 54.58-7.07z"/><path fill="#1732ac" d="M1785.38 952.39s-358.49 140.31-436.04 250.72c-77.55 110.41-140.37 377.65 12.5 391.5"/><path fill="#000141" d="M1785.38 952.39s-358.49 140.31-436.04 250.72c-77.55 110.41-140.37 377.65 12.5 391.5 152.87 13.86 423.54-642.22 423.54-642.22z" opacity=".25"/><path fill="#1732ac" d="M2595.21 2507.46c-47.59 77.67-114.05 140.32-190.25 185.9-2.5 1.52-5.06 3.05-7.61 4.41-439.72 256.65-1230.74 27.3-1309.82-103.39 21.86-1632.34 1283.66-2522.23 1482.23-554.65 14.19 140.97 23 296.63 25.45 467.73z"/><path fill="#201135" d="M1767.78 1052.62c.25 67.26 68.4 104.25 152.21 82.62 83.81-21.63 151.55-93.68 151.29-160.94-.26-67.26-68.4-104.25-152.21-82.62-83.81 21.63-151.55 93.68-151.29 160.94z" opacity=".1"/><path fill="#000141" d="M1799.39 1023.12c.22 58.21 59.2 90.22 131.74 71.5s131.16-81.08 130.94-139.29c-.22-58.21-59.2-90.22-131.74-71.5-72.53 18.71-131.16 81.08-130.94 139.29z"/><path fill="#fececc" d="M1854.18 1010.74c37.99 26.49 148.09-26.44 173.38-65.24 7.34-11.26-1.26-22.81-3.11-53.68-3.69-64.46-9.42-164.16-9.42-166.79l-159.5 80.48-.68 106.21c.01 0-20.98 84.86-.67 99.02z"/><path fill="#201135" d="m1854.86 911.72.68 1.94s18.06-15.24 54.07-27.67c36.11-12.52 113.78 12.43 113.78 12.43l1.07-6.6c-3.69-64.46-9.42-164.16-9.42-166.79l-159.5 80.48-.68 106.21z" opacity=".1"/><path fill="#000141" d="M1755.72 340.91s-81.13 122.74-22.88 218.43c58.25 95.69 397.34 31.2 397.34 31.2s153.94-208.72 16.64-269.05c0 0-55.47-115.11-143.54-103.32-151.93 20.34-247.56 122.74-247.56 122.74z"/><path fill="#fececc" d="M1779.29 888.7c42.93 29.99 285.97-145.89 327.32-199.69 4.65-6.06 8.34-14.31 11.32-24.23 47.31-.09 101.91-71.89 77.07-120.25-17.38-33.88-48.72-24.93-67.06-15.62-2.28-67.68-10.27-129.73-10.27-129.73-11.94-84.09-360.85-84.09-372.79 0 0-.01-94.16 399.71 34.41 489.52z"/><path fill="#201135" d="M2157.27 537.95c14.22-.07 37.97 16.33 23.71 51.71-14.25 35.38-41.76 50.17-41.76 50.17s38.66-32.79 33.46-61.33c-5.19-28.55-27.45-40.49-15.41-40.55z" opacity=".1"/><path fill="#000141" d="M2128.47 524.86s-2.27 51.07-32.96 51.3c-11 .08-15.73-168.95-29.71-168.98-70.6-.14-208.11-4.06-316.13-12.53-149.03-11.69 30.17-217.72 189.86-208.43 73 4.24 148.9 41.72 180.12 129.05 22.64 63.31 7.26 139.46 8.82 209.59z"/><path fill="#000141" d="M1987.37 612.89c1.86 11.04-10.17 22.27-26.86 25.08-16.69 2.81-31.74-3.85-33.6-14.88-1.86-11.03 10.16-22.26 26.86-25.08 16.7-2.81 31.73 3.85 33.6 14.88zm-189.11 1.05c1.86 11.03-10.16 22.26-26.86 25.07-16.69 2.82-31.74-3.85-33.59-14.88-1.86-11.03 10.17-22.26 26.86-25.07 16.69-2.82 31.72 3.84 33.59 14.88z" opacity=".05"/><path fill="#000141" d="M1806.27 510.2c-1.62 0-3.19-.84-4.05-2.34-.76-1.3-18.82-31.13-63.08-11.51-2.38 1.04-5.13-.02-6.16-2.38a4.672 4.672 0 0 1 2.37-6.16c52.19-23.14 74.74 15.01 74.96 15.39 1.28 2.24.5 5.09-1.74 6.37-.72.43-1.52.63-2.3.63zm90.53.83c-.58 0-1.16-.11-1.72-.34a4.644 4.644 0 0 1-2.61-6.05c.17-.42 17.14-41.13 78.5-28 2.52.53 4.12 3.02 3.58 5.54a4.654 4.654 0 0 1-5.54 3.59c-53.76-11.53-67.74 21.98-67.87 22.32a4.69 4.69 0 0 1-4.34 2.94zm-53.15 116.8c-1.61 0-3.2-.23-4.76-.68-9.89-2.88-14.08-14.03-14.25-14.49-.51-1.39-.33-2.92.47-4.16 16.74-25.7 12.29-60.41 12.25-60.75-.34-2.56 1.45-4.91 4-5.25 2.62-.37 4.91 1.45 5.25 4 .21 1.52 4.7 36.66-12.29 64.89 1.34 2.44 3.85 5.84 7.22 6.81 3.14.88 6.99-.34 11.4-3.72 2.05-1.56 4.98-1.17 6.54.87a4.658 4.658 0 0 1-.87 6.54c-5.18 3.96-10.19 5.94-14.96 5.94z"/><path fill="#fcfaf7" d="M1760.84 716.3s46.53 35.35 110.84 21.57c7.68 27.16-75.57 74.34-110.84-21.57z"/><path fill="#000141" d="M1792.11 547.82c0 14.54-8.07 26.33-18.01 26.33-9.95 0-18.02-11.79-18.02-26.33 0-14.53 8.07-26.32 18.02-26.32 9.94 0 18.01 11.79 18.01 26.32zm162.08 0c0 14.54-8.06 26.33-18.01 26.33-9.95 0-18.01-11.79-18.01-26.33 0-14.53 8.06-26.32 18.01-26.32 9.96 0 18.01 11.79 18.01 26.32z"/><path fill="#000141" d="M1813.45 796.1c-4.81-1.1-7.77-2.52-8.08-2.68a2.323 2.323 0 0 1-1.06-3.12 2.347 2.347 0 0 1 3.12-1.07c.18.1 19.13 9.08 40.82-2.49 1.16-.57 2.56-.15 3.16.97.6 1.14.17 2.55-.96 3.16-15.08 8.04-28.76 7.11-37 5.23z" opacity=".05"/><path fill="#000141" d="M2595.21 2507.46c-47.59 77.67-114.05 140.32-190.25 185.9-2.5 1.52-5.06 3.05-7.61 4.41-15.61-27.19-28.28-51.51-30.95-60.7-14.3-49.66 23.22-97.68 38.78-142.5 51.23-147.66-393.88-24.64-429.77 86.2-128.08 26.49-666.85 107.91-727.76-23.17 100.67-38.45 211.84-15.88 316.54-12.29 120.52 2.5 257.58 1.25 355.97-77.67 75.11-70.32 110.14-230.22 84.08-328.12-30.78-71.79-127.16-57.82-187.58-87.51 137.06-71.52 121.34-127.32 292.99-177.3 90.5-36.87 11.1-143.86 3.92-209.88-8.97-113.24-32.74-241.59 21.21-346.67 49.28 243.6 222.5 435.86 350.69 639.6 17.57 36.44 48.3 64.34 84.3 81.96 14.18 140.98 22.99 296.64 25.44 467.74z" opacity=".25"/><path fill="#e7f0fe" d="M697.16 922.67c0 4.97 4.03 9.01 9.01 9.01s9.01-4.03 9.01-9.01c0-4.97-4.03-9.01-9.01-9.01s-9.01 4.03-9.01 9.01zm-69.06 0c0 4.97 4.03 9.01 9.01 9.01 4.97 0 9.01-4.03 9.01-9.01 0-4.97-4.03-9.01-9.01-9.01-4.98 0-9.01 4.03-9.01 9.01zm-69.06 0c0 4.97 4.03 9.01 9.01 9.01 4.97 0 9.01-4.03 9.01-9.01 0-4.97-4.03-9.01-9.01-9.01-4.98 0-9.01 4.03-9.01 9.01zm-69.06 0c0 4.97 4.03 9.01 9.01 9.01 4.97 0 9.01-4.03 9.01-9.01 0-4.97-4.03-9.01-9.01-9.01-4.98 0-9.01 4.03-9.01 9.01zm243.27 38.87c0 4.97 4.03 9.01 9.01 9.01 4.97 0 9.01-4.03 9.01-9.01 0-4.97-4.03-9.01-9.01-9.01-4.97 0-9.01 4.04-9.01 9.01zm-69.05 0c0 4.97 4.03 9.01 9.01 9.01 4.97 0 9.01-4.03 9.01-9.01 0-4.97-4.03-9.01-9.01-9.01-4.98 0-9.01 4.04-9.01 9.01zm-69.06 0c0 4.97 4.03 9.01 9.01 9.01 4.97 0 9.01-4.03 9.01-9.01 0-4.97-4.03-9.01-9.01-9.01-4.98 0-9.01 4.04-9.01 9.01zm-69.06 0c0 4.97 4.03 9.01 9.01 9.01 4.97 0 9.01-4.03 9.01-9.01 0-4.97-4.03-9.01-9.01-9.01-4.98 0-9.01 4.04-9.01 9.01z"/><g fill="#e7f0fe"><circle cx="2787.14" cy="2624.13" r="7.87"/><circle cx="2726.76" cy="2624.13" r="7.87"/><circle cx="2666.39" cy="2624.13" r="7.87"/><path d="M2598.14 2624.13c0 4.35 3.53 7.87 7.88 7.87s7.87-3.53 7.87-7.87c0-4.35-3.53-7.87-7.87-7.87-4.36 0-7.88 3.52-7.88 7.87zm212.69 33.99c0 4.35 3.53 7.87 7.87 7.87 4.35 0 7.87-3.53 7.87-7.87 0-4.35-3.53-7.87-7.87-7.87-4.35-.01-7.87 3.52-7.87 7.87zm-60.38 0c0 4.35 3.53 7.87 7.87 7.87 4.35 0 7.87-3.53 7.87-7.87 0-4.35-3.53-7.87-7.87-7.87-4.34-.01-7.87 3.52-7.87 7.87zm-60.38 0c0 4.35 3.53 7.87 7.87 7.87 4.35 0 7.87-3.53 7.87-7.87 0-4.35-3.53-7.87-7.87-7.87-4.34-.01-7.87 3.52-7.87 7.87zm-60.37 0c0 4.35 3.53 7.87 7.87 7.87 4.35 0 7.87-3.53 7.87-7.87 0-4.35-3.53-7.87-7.87-7.87-4.35-.01-7.87 3.52-7.87 7.87z"/></g><path fill="#fff" d="M2884.94 1258.36c3.89 0 7.04-3.15 7.04-7.04s-3.15-7.04-7.04-7.04-7.04 3.15-7.04 7.04c.01 3.89 3.16 7.04 7.04 7.04zm0 53.96c3.89 0 7.04-3.15 7.04-7.04s-3.15-7.04-7.04-7.04-7.04 3.15-7.04 7.04c.01 3.89 3.16 7.04 7.04 7.04zm0 53.96c3.89 0 7.04-3.15 7.04-7.04s-3.15-7.04-7.04-7.04-7.04 3.15-7.04 7.04c.01 3.89 3.16 7.04 7.04 7.04zm0 53.96c3.89 0 7.04-3.15 7.04-7.04s-3.15-7.04-7.04-7.04-7.04 3.15-7.04 7.04c.01 3.89 3.16 7.04 7.04 7.04zm30.37-190.09c3.89 0 7.04-3.15 7.04-7.04s-3.15-7.04-7.04-7.04-7.04 3.15-7.04 7.04c.01 3.89 3.16 7.04 7.04 7.04zm0 53.96c3.89 0 7.04-3.15 7.04-7.04s-3.15-7.04-7.04-7.04-7.04 3.15-7.04 7.04c.01 3.89 3.16 7.04 7.04 7.04zm0 53.96c3.89 0 7.04-3.15 7.04-7.04s-3.15-7.04-7.04-7.04-7.04 3.15-7.04 7.04c.01 3.89 3.16 7.04 7.04 7.04zm0 53.96c3.89 0 7.04-3.15 7.04-7.04s-3.15-7.04-7.04-7.04-7.04 3.15-7.04 7.04c.01 3.89 3.16 7.04 7.04 7.04z"/><path fill="#eab2b2" d="M516.09 1502.97s10.03-6.28 34.24-19.94 46.26-61.43 58.84-54.28c12.58 7.15 6.82 77.51-22.36 101.16-29.17 23.64-68.21-5.51-70.72-26.94zM2008.78 2333.76s-1.84-11.69-7.43-38.92c-5.59-27.23 15.98-75.22 2.33-80.02-13.65-4.8-62.95 45.74-61.64 83.27 1.3 37.53 48.92 47.85 66.74 35.67z"/><path fill="#a0c5ff" d="M2093.67 1846.74c-2.54 831.54-1102.62 1098.25-1494.03 388.1-134.67-234.39-129.75-561.32 14.29-791.77 396.75-683.45 1483.72-392.71 1479.74 403.67z"/><path fill="#000141" d="M1959.55 1403.41c-10.39 39.64-1.23 79.38 12.48 117.1 6.92 19.05 14.6 37.84 20.78 57.16 5.79 18.11 10.51 36.66 14.93 55.15 8.86 37.09 16.54 77.05 7.39 114.81-7.82 32.26-26.32 59.77-39.01 90.06-6.95 16.6-11.6 33.96-12.87 51.94-1.39 19.65 1.77 39.71 4.01 59.21 4.37 38.02 9.48 77.06 2.13 115.04-7.09 36.64-26.78 71.12-56.66 93.88-28.94 22.04-64.38 32.78-98.46 43.99-8.99 2.96-18.34 5.54-26.9 9.58-7.25 3.43-14.52 6.84-21.74 10.34-12.19 5.91-24.48 11.98-35.65 19.7-19.41 13.42-30.57 31.51-32.67 55.16-2.69 30.32 5.47 60 10.68 89.58 3.36 19.11 4.72 38.77-8.1 54.82-7.55 9.45-17.67 16.54-27.88 22.84-14.27 8.8-29.35 16.49-44.57 23.51-28.88 13.31-59.47 24.21-85.85 42.3-26.89 18.44-45.95 44.68-51.19 77.23-.69 4.31-1.11 8.63-1.42 12.96 325.78-80.75 603.43-355.77 604.7-773.03.86-173.35-49.98-322.73-134.13-443.33z" opacity=".1"/><ellipse cx="1297.5" cy="1851.42" fill="#5d74e4" rx="675.45" ry="675.44" transform="rotate(-45.001 1297.483 1851.444)"/><path fill="#fff" d="M683.45 1856.02c-1.18-203.04 96.28-383.58 247.42-496.24a610.134 610.134 0 0 1 148.1-81.35c23.9-9.2 48.45-16.79 73.67-22.87 45.36-11.05 92.58-16.95 141.23-17.23 63.55-.37 124.89 8.88 182.6 26.46 250.54 76.21 433.48 308.41 435.09 584.06.56 95.92-20.92 186.67-59.61 267.71-47.43 99.44-120.84 184.12-211.54 245.29-21.29 14.37-43.43 27.44-66.57 39.02-49.7 25.1-103.43 43.76-159.9 54.56-36.54 7.01-74.28 10.79-112.91 11.02-339.08 1.97-615.6-271.33-617.58-610.43z"/><path fill="#e7f0fe" d="M1911.56 1848.82c.55 95.96-20.91 186.69-59.63 267.71-47.43 99.44-120.84 184.13-211.5 245.34-21.28 14.33-43.47 27.44-66.58 38.96-49.69 25.12-103.46 43.78-159.92 54.57-2.25.43-4.51.85-6.83 1.22 19.2-10.12 37.74-21.34 55.66-33.41 90.72-61.21 164.13-145.9 211.56-245.34 38.65-81.03 60.18-171.75 59.57-267.65-1.59-275.7-184.55-507.87-435.07-584.08-57.74-17.56-119.07-26.83-182.6-26.46-36.03.24-71.27 3.48-105.54 9.63a597.795 597.795 0 0 1 68.29-30.91c23.9-9.14 48.47-16.76 73.65-22.86 45.36-11.03 92.61-16.95 141.26-17.19 63.53-.37 124.87 8.84 182.6 26.46 250.53 76.2 433.49 308.37 435.08 584.01z"/><path fill="#a0c5ff" d="M744.12 1916.05c-.12-1.06-.27-2.1-.39-3.16-.12-1.05-.2-2.11-.31-3.16l-15 1.66.7 6.31 15-1.65zm880.99 386.15 8.87 12.07 5.12-3.76-8.89-12.09c-1.69 1.26-3.39 2.53-5.1 3.78zM763.8 1857.71l-.04-6.35-38.49.22.04 6.36 38.49-.22zM1670.43 2265.49l10.08 11.07 4.7-4.28-10.11-11.09c-1.54 1.44-3.1 2.88-4.67 4.3zm-918-529.85-14.69-3.04-1.28 6.22 14.67 3.03c.41-2.07.86-4.14 1.3-6.21zm1.47 237.9c-.23-1.03-.49-2.06-.72-3.09-.23-1.04-.42-2.08-.64-3.12l-14.74 3.22 1.35 6.21 14.75-3.22zm80.75 214.36 3.76 5.12 12.08-8.89c-1.27-1.7-2.54-3.39-3.78-5.1l-12.06 8.87zm126.63 126.56 5.17 3.7 8.75-12.19c-1.73-1.22-3.46-2.44-5.18-3.68l-8.74 12.17zM1005.73 1359.177l5.48-3.208 19.447 33.227-5.48 3.208zM914.72 2276.78l4.75 4.23 9.97-11.21c-1.59-1.39-3.18-2.79-4.76-4.2l-9.96 11.18zm-42.36-42.34 4.28 4.7 11.09-10.11c-1.44-1.55-2.88-3.1-4.3-4.68l-11.07 10.09zm839.31-10.2 11.19 9.96 4.23-4.75-11.21-9.98c-1.4 1.59-2.79 3.19-4.21 4.77zm-968.36-430.99-14.93-1.48-.63 6.32 14.91 1.48c.2-2.11.43-4.21.65-6.32zm22.26-107.9c.63-2.02 1.29-4.04 1.95-6.04v-.01l-14.29-4.55-1.93 6.05 14.27 4.55zm982.8 493.55 12.17 8.73 3.71-5.16-12.19-8.75c-1.23 1.73-2.45 3.47-3.69 5.18zM832.15 1590.02l3.15-5.52-33.45-19.05-1.99 3.5-1.16 2.02zM1826.39 1676.15c.33 1.01.63 2.02.96 3.03l14.32-4.75-2-6.03-14.32 4.74c.34 1.01.71 2 1.04 3.01zm-1037.98-51.3-13.74-6.02-2.55 5.82 13.72 6.01c.84-1.95 1.71-3.88 2.57-5.81zM1841.1 1729.3c.23 1.03.49 2.06.71 3.1.23 1.04.42 2.07.64 3.11l14.74-3.22-1.36-6.21-14.73 3.22zM1023.61 2325.86l-12.08 21.21 5.52 3.14 19.05-33.45-5.52-3.14zM1125.38 2381.4l-4.55 14.29 6.05 1.93 4.55-14.27c-2.02-.63-4.04-1.3-6.05-1.95zm-64.46-1051.01-2.11.95 6.22 13.75c.97-.44 1.91-.91 2.88-1.34.97-.44 1.94-.84 2.91-1.27l-6.22-13.75-3.68 1.66zm789.96 456.4c.12 1.06.28 2.1.39 3.15.12 1.06.2 2.11.31 3.17l15-1.67-.7-6.32-15 1.67zm-880.99-386.15-8.87-12.06-5.12 3.76 8.89 12.09c1.69-1.27 3.38-2.55 5.1-3.79zm101.04 959.87-6.03 13.74 5.82 2.56v-.01l3.34-7.61 2.68-6.11c-1.95-.84-3.88-1.72-5.81-2.57zM838.45 2123.72l-3.21-5.49-33.22 19.45 3.2 5.48h.01zM846.62 1523.94l-12.17-8.73-3.71 5.16 12.19 8.74c1.24-1.72 2.45-3.46 3.69-5.17zm36.71-45.34-11.19-9.96-4.22 4.74 11.21 9.98c1.39-1.59 2.78-3.18 4.2-4.76zm231.15-169.36 4.74 14.32c1.01-.34 2-.71 3.01-1.04 1.01-.34 2.02-.63 3.03-.96l-4.75-14.32-6.03 2zm-345.87 717.45c-.33-1.01-.63-2.02-.96-3.03l-14.32 4.75 2 6.03 14.32-4.74c-.35-1.01-.71-2-1.04-3.01zm21.21 54.32c-.44-.97-.84-1.94-1.27-2.92l-13.75 6.22 2.62 5.79 13.75-6.22c-.45-.95-.9-1.9-1.35-2.87zm134.75-643.66-10.08-11.07-4.7 4.28 10.11 11.09c1.54-1.44 3.09-2.88 4.67-4.3zm904.86 580.14c-.63 2.03-1.3 4.03-1.95 6.05l14.29 4.55 1.93-6.05v-.01l-14.27-4.54zM1762.84 2112.81l-3.15 5.52 33.46 19.06 1.46-2.56 1.68-2.96zM1760.35 1514.94l-3.76-5.12-12.09 8.89c1.27 1.7 2.54 3.39 3.79 5.11l12.06-8.88zm-236.08-188.9-.66 1.5-5.35 12.21c1.94.84 3.87 1.71 5.81 2.57l6.02-13.74-5.82-2.54zm-345.58 1085.14 6.22 1.28 3.03-14.67c-2.08-.42-4.15-.87-6.22-1.31l-3.03 14.7zM1564.238 2313.734l5.49-3.212 19.444 33.23-5.49 3.212zM1619.8 1396.86c1.73 1.22 3.46 2.44 5.18 3.69l8.73-12.17-5.16-3.7-8.75 12.18zm45.75 36.18c1.59 1.4 3.18 2.79 4.76 4.21l9.96-11.19-4.75-4.23-9.97 11.21zm186.13 476.55 14.93 1.48.63-6.33-14.91-1.48c-.2 2.11-.42 4.22-.65 6.33zM1831.2 1845.12v.01l.03 6.35 38.5-.23-.04-6.35zM1842.57 1967.2l14.69 3.03 1.29-6.22-14.67-3.03c-.42 2.08-.87 4.14-1.31 6.22zm-35.99 110.79 13.74 6.02 2.55-5.82-13.72-6.01c-.83 1.94-1.7 3.88-2.57 5.81zM1789.77 1559.68l-33.23 19.44 3.21 5.49 33.23-19.45zM1803.83 1618.95c.44.97.91 1.91 1.34 2.88.43.97.84 1.94 1.27 2.91l13.75-6.22-2.62-5.79-13.74 6.22zm-96.56-145.15c1.44 1.56 2.88 3.11 4.3 4.68l11.07-10.08-4.28-4.7-11.09 10.1zm-297.18-183.43-3.03 14.67c2.08.42 4.15.87 6.22 1.31l3.03-14.69-6.22-1.29zm-51.11 1114.82c-1.05.12-2.11.2-3.16.31l1.66 14.99 6.32-.7-1.67-14.99c-1.05.12-2.1.28-3.15.39zm170.99-47.44c-.96.44-1.91.91-2.87 1.34-.97.44-1.95.84-2.92 1.27l6.22 13.75 2.22-1.01 3.57-1.61-6.22-13.74zm-290.64 47.85-1.48 14.93 6.32.63 1.48-14.9c-2.11-.2-4.21-.44-6.32-.66zm177.2-9.87c-1.04.23-2.08.42-3.12.64l3.22 14.74 6.21-1.36-3.22-14.74c-1.04.24-2.06.49-3.09.72zm47.04-1076.24c2.02.63 4.03 1.3 6.05 1.95l4.55-14.29-6.05-1.93-4.55 14.27zm-285.21-27.76-6.21 1.36 3.22 14.74c1.03-.24 2.05-.49 3.09-.72 1.04-.23 2.07-.42 3.11-.64l-3.21-14.74zm297.41 1087.54c-1.01.34-1.99.71-3 1.04-1.01.33-2.02.63-3.03.96l4.74 14.32 6.03-2-4.74-14.32zM1231.2 1283.04l1.66 14.99c1.05-.12 2.1-.27 3.15-.39 1.05-.12 2.11-.2 3.16-.31l-1.66-15-6.31.71zm118.14 13.54c2.11.2 4.22.43 6.32.65h.01l1.48-14.93-6.32-.63-1.49 14.91zM1558.9 1386.08l5.52 3.14 4.26-7.49 14.79-25.96-5.52-3.14zM1297.473 2385.182l6.35-.036.22 38.5-6.35.036zM1290.992 1279.258l6.36-.038.227 38.5-6.36.038z"/><path fill="#5d74e4" d="M1338.3 1851.19c.12 21.64-17.32 39.28-38.96 39.41-21.64.13-39.29-17.31-39.41-38.95-.13-21.64 17.31-39.29 38.96-39.41 21.64-.13 39.28 17.31 39.41 38.95z"/><path fill="#5d74e4" d="m1563.24 1517.29-263.91 313.43 21.24 20.95 310.58-267.42 15.99-84.14z"/><path fill="#a0c5ff" d="M1306.31 1881.09c10.49-2.13 19.38-9.97 22.16-21.05 3.87-15.38-5.46-30.99-20.84-34.86-15.38-3.87-30.99 5.46-34.86 20.84-2.84 11.28 1.47 22.65 10.02 29.45l-93.69 269.95 20.82 59.21 46.86-41.76 49.53-281.78z"/><path fill="#fececc" d="M2559.14 1695.99s226.44 518.53.34 558.7c-226.1 40.18-336.05-425.82-336.05-425.82l335.71-132.88z"/><path fill="#fececc" d="M1975.39 2469.95c25.49 14 447.42-65.57 633.01-235.75 185.6-170.18-160.65-279.34-283.42-206.11-122.78 73.23-345.07 293.68-345.07 293.68s-84 104.54-4.52 148.18z"/><path fill="#eab2b2" d="M2318.13 2385.33c-7.36-.64-14.78.73-21.93 2.36-9.58 2.18-18.96 4.79-28.75 5.94-23.46 2.76-47.13.47-70.64 2.3-11.65.9-22.86 3.13-34.02 6.57-9.32 2.87-18.49 6.2-27.77 9.17-18.47 5.9-38.51 11.27-57.99 7.79-9.28-1.66-18.6-5.42-25.62-11.85-5.75-5.27-9.06-12.24-9.92-19.95-1.75-15.65 4.42-31.32-.08-46.79-4.6-15.8-17.35-26.91-31.17-34.85-3.02-1.73-6.11-3.32-9.23-4.83-13.36 12.93-21.08 20.59-21.08 20.59s-84.01 104.54-4.52 148.18c15.82 8.68 184.26-18.66 354.18-81.32-3.52-1.83-7.39-2.95-11.46-3.31zm285.69-543.66c-8.94 35.03-32.82 63.38-64.62 80.25-30.89 16.39-65.8 18.99-100.11 19.94-12.58.35-25.2.32-37.76 1.25-6.65.49-13.35 1.22-19.85 2.81-5.03 1.23-10.58 2.95-14.35 6.69-7.33 7.28-5.12 17.79 2.99 23.13 8.5 5.6 19.39 7.45 29.26 9.03 15.25 2.45 30.62 4.65 45.65 8.25 18.19 4.34 37.87 11.27 51.05 25.2 10.26 10.83 14.82 25.3 14.23 40-.24 5.85-.61 12.12-2.76 17.63-.41 1.04-.88 2.2-1.68 3.02-.63.65-.56.57-1.02.55-2.26-.11-5.07-2.43-6.86-3.6-4.87-3.2-9.3-6.98-14.05-10.33-7.38-5.2-16.64-8.66-24.92-12.12-20.06-8.38-40.7-16.13-61.77-21.54-20.54-5.27-41.59-8.61-62.76-9.9-14.92-.91-29.87-.64-44.81-1.06-44.34-99.2-66.25-192-66.25-192l335.71-132.88s23.59 54.05 47.94 128.57c-.79 5.76-1.82 11.48-3.26 17.11z" opacity=".5"/><path fill="#1732ac" d="M2226.12 1060.76s509.27 601.1 403.67 744.59c-105.59 143.49-337.57 140.32-419.69 76.58-82.12-63.75-162.73-916.19 16.02-821.17z"/><path fill="#000141" d="M2149.49 1377.8c14.41 40.07 31.46 79.32 52.16 116.57 9.62 17.31 20.05 34.19 31.5 50.35 10.43 14.72 22.09 28.24 33.93 41.82 9.54 10.95 18.57 22.32 23.98 35.95 6.76 17.05 8.41 36.3 6.64 54.43-2.05 20.95-7.52 41.5-7.97 62.63-.22 10.37.77 20.81 3.82 30.76 2.42 7.9 6.7 15.31 11.12 22.25 19.1 29.98 48.08 53.39 78.57 71.05 15.34 8.88 31.47 16.49 48.2 22.35 13.3 4.66 27.28 8.63 41.37 9.88 12.29 1.09 24.69 1.01 37.09.55-109.96 45.19-241.99 30.42-299.79-14.46-48.71-37.81-94.21-354.26-85.86-585.65 7.24 27.52 15.62 54.75 25.24 81.52z" opacity=".1"/><path fill="#fececc" d="M505 1484.69s224.39 45.42 220.68 88.14c-1.74 19.98-78.79 11.3-138.53 1.59 72.61 14.53 134.25 35.37 122.33 55.33-9.17 15.35-74.74 7.14-134.56-.16 40.55 8.74 123.39 29.17 118.8 46.68-7.8 29.7-91.1 13.1-147.1.67 32.83 9.67 117.3 34.15 113.27 50.21-3.57 14.22-23.14 22.72-93.5 6.82-41.06-9.28-41.53-1.12-59.37-9.01-13.77-6.08-28.71-10.86-37.39-21.22-41.84-49.87.71-210.3 35.37-219.05z"/><path fill="#e7f0fe" d="M653.65 1728.24c.59-7.76-21.57-18.43-24.24-17.67 0 0-5.23 19.29-4.62 22.98.6 3.69 28.27 2.45 28.86-5.31zm34.39-49.96c.6-7.76-21.58-18.43-24.25-17.68 0 0-5.22 19.29-4.61 22.98.61 3.69 28.28 2.46 28.86-5.3zm16.07-55.17c.59-7.76-21.58-18.44-24.24-17.68 0 0-5.23 19.29-4.61 22.98.6 3.69 28.26 2.45 28.85-5.3zm14.51-54.57c.6-7.76-21.57-18.43-24.24-17.67 0 0-5.23 19.29-4.62 22.98.6 3.69 28.28 2.45 28.86-5.31z" opacity=".5"/><path fill="#eab2b2" d="m555.35 1679.45-67.86-29.65s-20.8 19.32-6.58 47.52c0 0-32.41-25.8-11.26-107.59 21.17-81.79 33.19-89.96 33.19-89.96s-6.43 25.48 7.3 44.21c3.06 4.19 75.98 29.92 71.31 28.83-4.66-1.09-72.52-13.79-72.52-13.79l-8.7 34.68 65.57 32.4-69.88-18.95-6.21 29.87 65.64 42.43z" opacity=".25"/><path fill="#fececc" d="M1997.43 2305.63s-225.49-39.61-237.62 1.53c-5.67 19.23 69.23 39.27 128.4 52.04-72.91-12.97-137.9-16.06-134.08 6.87 2.94 17.64 66.98 33.92 125.34 48.97-40.94-6.66-125.53-17.88-127.64.1-3.58 30.5 80.04 45.44 136.7 54.31-34.09-2.98-121.67-11.02-123.78 5.4-1.86 14.54 13.25 29.6 84.57 40.48 41.62 6.35 39.07 14.12 58.56 13.28 15.04-.64 30.69.37 42.56-6.11 57.13-31.18 76.07-196.08 46.99-216.87z"/><path fill="#e7f0fe" d="M1770.14 2478.13c2.28-7.44 26.81-9.28 29.02-7.61 0 0-2.17 19.86-4.09 23.08-1.9 3.22-27.21-8.03-24.93-15.47zm-13.78-59.07c2.28-7.44 26.81-9.28 29.03-7.61 0 0-2.18 19.87-4.1 23.08-1.91 3.21-27.22-8.04-24.93-15.47zm5.17-57.24c2.28-7.44 26.82-9.29 29.02-7.61 0 0-2.17 19.87-4.1 23.08-1.9 3.22-27.2-8.03-24.92-15.47zm6.41-56.09c2.28-7.44 26.81-9.28 29.02-7.6 0 0-2.17 19.87-4.09 23.08-1.9 3.21-27.22-8.05-24.93-15.48z" opacity=".5"/><path fill="#eab2b2" d="m1879.47 2468.58 74-2.84s12.31 25.58-11.22 46.64c0 0 39.6-12.19 49.75-96.06 10.15-83.87 1.93-95.87 1.93-95.87s-3.32 26.07-22.93 38.49c-4.38 2.78-81.66.13-76.92.82 4.73.69 72.55 13.63 72.55 13.63l-4.56 35.47-72.87 6.24 71.97 7.86-5.12 30.07-76.58 15.55z" opacity=".25"/><path fill="#5d74e4" d="m2958.65 1106-131.17-168.69-313.87-451.63h445.04z"/><path fill="#5d74e4" d="M2466.14 472.91h445.05v67.34h-445.05zM2911.18 1117.02s23.74-43.26 47.47-11.02c0-28.49-47.47-252.14-47.47-252.14v263.16z"/><path fill="#a0c5ff" d="M2466.14 540.25h445.05v576.77h-445.05z"/><path fill="#1732ac" d="m2911.18 472.91-1.98 67.34 49.45 10v-64.57z"/><path fill="#fff" d="M2911.18 540.25h-445.05s6.3 266.78-124.25 448.5c75.11 71.91 284.65 95.9 454.19 51.86 60.4-15.69 115.11-500.36 115.11-500.36z"/><path fill="#5d74e4" d="M2553.2 607.46h22.43v10.16h-22.43v20.04h-13.07v-50.09h37.68v10.16h-24.61v9.73zm78.44 30.2h-14.23c-1.16-3.56-1.89-6.46-2.32-10.02-.65-5.52-2.83-8.71-6.17-8.93-1.45-.07-2.69-.07-4.14-.07h-2.91v19.02h-13.07v-50.09h19.89c3.12 0 5.15.07 7.84.36 7.26.87 13.58 4.43 13.58 13.29 0 6.32-3.41 10.53-10.09 12.48 5.23 1.89 7.11 5.74 7.84 11.76.66 5.67 1.82 9.23 3.78 12.2zm-25.05-28.46c1.38 0 2.54 0 3.48-.07 3.34-.29 6.39-1.45 6.39-5.66s-2.68-5.37-6.02-5.66c-.95-.07-2.11-.07-3.49-.07h-5.08v11.47h4.72zm35.75 28.46v-50.09h13.07v50.09h-13.07zm73.35-25.7c0 15.68-9.59 24.1-21.2 25.41-2.54.29-3.7.29-6.39.29h-18.95v-50.09h18.95c2.69 0 3.85 0 6.39.29 11.61 1.3 21.2 8.42 21.2 24.1zm-13.65.22c0-8.93-4.5-13.72-11.04-14.3-1.67-.15-2.83-.15-4.72-.15h-4.07v29.76h4.07c1.89 0 3.05 0 4.72-.15 6.53-.57 11.04-6.23 11.04-15.16zm36.77 12.49-4.21 13h-13.87l18.08-50.09h15.97l18.08 50.09h-14.23l-4.21-13h-15.61zm3.19-10.17h9.29l-4.65-15.39-4.64 15.39zm58.48 23.16h-13.07V618.5l-17.64-30.93h14.67l9.87 19.82 9.51-19.82h14.3l-17.64 30.93v19.16z"/><path fill="#000141" d="M2631.62 860.24v32.14h-122.81v-17.9l49.81-46.83c23.64-22.27 31.67-33.29 31.67-48.43 0-11.94-6.66-18.6-17.9-18.6-11.94 0-17.91 7.58-19.51 24.1l-.23 2.29h-41.32l.23-2.29c3.44-34.89 25.48-54.4 64.27-54.4 36.96 0 57.61 17.68 57.61 47.29 0 18.59-8.49 32.83-39.02 62.21l-21.12 20.43h58.32zm167.78-14.92c0 30.3-24.79 50.27-64.73 50.27-40.17 0-63.59-19.51-66.8-51.19l-.23-2.3h41.32l.46 2.3c2.3 11.02 10.1 20.89 23.65 20.89 14.23 0 23.18-8.03 23.18-18.82 0-13.55-9.87-20.43-26.4-21.12l-6.2-.23v-26.63l6.2-.46c15.15-1.15 22.72-9.41 22.72-20.2 0-10.33-6.2-16.76-17.67-16.76-12.17 0-17.22 9.87-18.14 20.2l-.23 2.3h-41.32l.23-2.3c2.75-26.63 22.5-50.5 63.59-50.5 38.8 0 56.7 19.74 56.7 42.24 0 18.59-9.41 30.99-30.07 36.04 22.49 4.36 33.74 15.84 33.74 36.27z"/><path fill="#e7f0fe" d="M695.39 793.21c-48 0-87.06-39.05-87.06-87.06V500.79c0-48 39.05-87.06 87.06-87.06h750.86c48 0 87.06 39.05 87.06 87.06v205.36c0 48-39.05 87.06-87.06 87.06H695.39z"/><path fill="#fff" d="M695.39 432h750.86c37.99 0 68.79 30.8 68.79 68.79v205.36c0 37.99-30.8 68.79-68.79 68.79H695.39c-37.99 0-68.79-30.8-68.79-68.79V500.79c0-37.99 30.8-68.79 68.79-68.79z"/><path fill="#5d74e4" d="M626.6 548.98v-48.2c0-37.99 30.8-68.79 68.79-68.79h750.86c37.99 0 68.79 30.8 68.79 68.79v48.2H626.6z"/><path fill="#fff" d="M792.25 507.38 788 520.51h-14l18.25-50.58h16.13l18.26 50.58h-14.37l-4.25-13.12h-15.77zm3.22-10.26h9.38l-4.69-15.54-4.69 15.54zm80.93-10.78c0 9.97-6.67 15.18-14 16.06-2.71.29-4.77.37-7.92.37h-5.86v17.74h-13.2v-50.58h19.06c3.15 0 5.21.07 7.92.37 7.33.87 14 6.07 14 16.04zm-13.78 0c0-3.81-1.98-5.79-5.35-6.08-.95-.07-2.13-.07-3.52-.07h-5.13v12.32h5.13c1.39 0 2.57 0 3.52-.07 3.37-.3 5.35-2.29 5.35-6.1zm65.03 0c0 9.97-6.67 15.18-14 16.06-2.71.29-4.77.37-7.92.37h-5.86v17.74h-13.2v-50.58h19.06c3.15 0 5.21.07 7.92.37 7.33.87 14 6.07 14 16.04zm-13.78 0c0-3.81-1.98-5.79-5.35-6.08-.95-.07-2.13-.07-3.52-.07h-5.13v12.32H905c1.39 0 2.57 0 3.52-.07 3.37-.3 5.35-2.29 5.35-6.1zm73.89 8.88c0 16.2-10.12 26.32-25.88 26.32S936 511.42 936 495.22c0-16.27 10.12-26.32 25.88-26.32s25.88 10.04 25.88 26.32zm-13.48 0c0-10.78-4.77-16.64-12.39-16.64-7.62 0-12.39 5.86-12.39 16.64 0 10.7 4.77 16.64 12.39 16.64 7.62 0 12.39-5.94 12.39-16.64zm25.44 25.29v-50.58h13.2v50.58h-13.2zm58.2 0-18.4-33.43c.44 5.13.44 9.6.44 12.53v20.89h-13.19v-50.58h16.42l19.21 34.9c-.37-5.13-.44-10.34-.44-13.27v-21.63h13.2v50.58h-17.24zm55.86-40.32v40.32h-13.19v-40.32h-16.42v-10.26h46.04v10.26h-16.43zm83.43 40.32h-13.19v-21.26c0-4.4 0-10.92.15-16.06-.88 5.13-2.35 11.58-3.52 16.06l-5.57 21.26h-13.56l-5.65-21.26c-1.17-4.4-2.64-10.92-3.45-16.06.15 5.13.15 11.65.15 16.06v21.26h-13.2v-50.58h20.6l8.58 37.75 8.57-37.75h20.09v50.58zm52.64 0h-38.78v-50.58h38.05v10.26h-24.85v9.82h23.38v10.26h-23.38v9.97h25.58v10.27zm43.25 0-18.4-33.43c.44 5.13.44 9.6.44 12.53v20.89h-13.2v-50.58h16.42l19.2 34.9c-.37-5.13-.44-10.34-.44-13.27v-21.63h13.2v50.58h-17.22zm55.86-40.32v40.32h-13.2v-40.32h-16.42v-10.26h46.04v10.26h-16.42z"/><g fill="#a0c5ff"><path d="M808.53 595.78c-34.54 0-62.54 28-62.54 62.54s28 62.54 62.54 62.54 62.54-28 62.54-62.54-28-62.54-62.54-62.54zm0 114.79c-28.87 0-52.31-23.38-52.31-52.25s23.44-52.25 52.31-52.25 52.25 23.38 52.25 52.25-23.38 52.25-52.25 52.25z"/><path d="M816.73 658.32c0 4.55-3.68 8.23-8.23 8.23s-8.24-3.68-8.24-8.23 3.69-8.23 8.24-8.23 8.23 3.68 8.23 8.23z"/><path d="M808.5 614.02c-2.91 0-5.28 2.36-5.28 5.28v36.67c0 2.92 2.36 5.28 5.28 5.28 2.92 0 5.28-2.36 5.28-5.28V619.3c0-2.92-2.36-5.28-5.28-5.28z"/><path d="M839.36 629.13a5.275 5.275 0 0 0-7.46 0l-25.93 25.93a5.275 5.275 0 0 0 7.46 7.46l25.93-25.93a5.257 5.257 0 0 0 0-7.46z"/></g><path fill="#a0c5ff" d="M1108.26 610.29H943.72c-4.05 0-7.8 2.77-8.45 6.76a8.132 8.132 0 0 0 8.02 9.49h164.98a8.13 8.13 0 0 0 8.13-8.13 8.143 8.143 0 0 0-8.14-8.12zm314.25 0h-286.95a8.13 8.13 0 0 0 0 16.26h287.39c4.94 0 8.84-4.4 8.02-9.49-.66-4-4.41-6.77-8.46-6.77zm-243.32 39.9H943.72c-4.05 0-7.8 2.77-8.45 6.76a8.132 8.132 0 0 0 8.02 9.49h235.91a8.13 8.13 0 0 0 8.13-8.13 8.143 8.143 0 0 0-8.14-8.12zm0 39.9H943.72c-4.05 0-7.8 2.76-8.45 6.76a8.132 8.132 0 0 0 8.02 9.49h235.91a8.13 8.13 0 0 0 8.13-8.13 8.143 8.143 0 0 0-8.14-8.12zm243.31-39.9h-216.02a8.13 8.13 0 0 0 0 16.26h216.46c4.94 0 8.85-4.4 8.02-9.49-.65-4-4.41-6.77-8.46-6.77z"/></svg>